<svg width="445" height="126" viewBox="0 0 445 126" fill="none" xmlns="http://www.w3.org/2000/svg">
<g clip-path="url(#clip0_15_12)">
<path fill-rule="evenodd" clip-rule="evenodd" d="M5.17001 95.11L1.75001 98.53C-0.189987 100.47 -0.189987 103.64 1.75001 105.57C3.69001 107.51 6.86001 107.51 8.79001 105.57L12.21 102.15C14.15 100.21 14.15 97.04 12.21 95.11C10.27 93.17 7.10001 93.17 5.17001 95.11Z" fill="url(#paint0_linear_15_12)"/>
<path fill-rule="evenodd" clip-rule="evenodd" d="M58.64 69.81L49.5 60.67C42.91 54.08 42.91 43.28 49.5 36.69L69.46 16.73C76.97 9.22 70.31 -1.74 58.25 0.230003C47.31 2.01 36.81 7.12 28.37 15.56L1.45 42.48C-0.490005 44.42 -0.490005 47.58 1.45 49.52C3.39 51.46 6.56 51.46 8.49 49.52L14.94 43.07C16.88 41.14 20.05 41.14 21.98 43.07C23.92 45.01 23.92 48.18 21.98 50.12L4.47 67.63C2.52999 69.57 2.52999 72.74 4.47 74.67C6.41 76.61 9.58 76.61 11.51 74.67L16.46 69.72C18.4 67.78 21.57 67.78 23.5 69.72C25.44 71.66 25.44 74.83 23.5 76.76C20.2 80.06 19.8 80.46 16.5 83.76C14.56 85.7 14.56 88.87 16.5 90.8C18.44 92.74 21.61 92.74 23.54 90.8L33.31 81.03C35.25 79.09 38.42 79.09 40.35 81.03C42.29 82.97 42.29 86.14 40.35 88.07L17.14 111.28C15.2 113.22 15.2 116.38 17.14 118.32C19.08 120.26 22.25 120.26 24.18 118.32L58.62 83.88C62.51 79.99 62.51 73.68 58.62 69.79L58.64 69.81Z" fill="url(#paint1_linear_15_12)"/>
<path fill-rule="evenodd" clip-rule="evenodd" d="M101.34 11.52C96.71 7.82999 91.45 8.82999 87.45 12.84L75.58 24.71C71.69 28.6 71.69 34.91 75.58 38.8L84.72 47.94C91.31 54.53 91.31 65.32 84.72 71.92C71.29 85.35 68.38 88.26 54.95 101.69C53.01 103.63 53.01 106.8 54.95 108.73C56.89 110.67 60.06 110.67 61.99 108.73L80.02 90.7C81.96 88.76 85.13 88.76 87.06 90.7C89 92.64 89 95.81 87.06 97.74C84.54 100.26 82.02 102.78 79.5 105.3C77.56 107.24 77.56 110.41 79.5 112.34C81.44 114.28 84.61 114.28 86.54 112.34L105.84 93.04C127.24 71.64 127.24 36.96 105.84 15.56C104.39 14.11 102.89 12.76 101.33 11.52H101.34Z" fill="url(#paint2_linear_15_12)"/>
<path fill-rule="evenodd" clip-rule="evenodd" d="M43.18 113.45L39.76 116.87C37.82 118.81 37.82 121.98 39.76 123.91C41.7 125.85 44.87 125.85 46.8 123.91L50.22 120.49C52.16 118.55 52.16 115.38 50.22 113.45C48.28 111.51 45.11 111.51 43.18 113.45Z" fill="url(#paint3_linear_15_12)"/>
</g>
<path d="M147.176 78C145.833 78 144.597 77.6643 143.466 76.993C142.371 76.3217 141.487 75.4383 140.816 74.343C140.145 73.2123 139.809 71.9757 139.809 70.633V67.718H146.805V70.315C146.805 70.4917 146.858 70.6507 146.964 70.792C147.105 70.898 147.264 70.951 147.441 70.951H170.284C170.461 70.951 170.602 70.898 170.708 70.792C170.849 70.6507 170.92 70.4917 170.92 70.315V63.054C170.92 62.8773 170.849 62.736 170.708 62.63C170.602 62.524 170.461 62.471 170.284 62.471H147.176C145.833 62.471 144.597 62.1353 143.466 61.464C142.371 60.7927 141.487 59.9093 140.816 58.814C140.145 57.6833 139.809 56.429 139.809 55.051V47.207C139.809 45.8643 140.145 44.6453 140.816 43.55C141.487 42.4193 142.371 41.5183 143.466 40.847C144.597 40.1757 145.833 39.84 147.176 39.84H170.602C171.945 39.84 173.164 40.1757 174.259 40.847C175.39 41.5183 176.291 42.4193 176.962 43.55C177.633 44.6453 177.969 45.8643 177.969 47.207V50.122H170.92V47.525C170.92 47.3483 170.849 47.207 170.708 47.101C170.602 46.9597 170.461 46.889 170.284 46.889H147.441C147.264 46.889 147.105 46.9597 146.964 47.101C146.858 47.207 146.805 47.3483 146.805 47.525V54.786C146.805 54.9627 146.858 55.104 146.964 55.21C147.105 55.316 147.264 55.369 147.441 55.369H170.602C171.945 55.369 173.164 55.7047 174.259 56.376C175.39 57.0473 176.291 57.9483 176.962 59.079C177.633 60.1743 177.969 61.411 177.969 62.789V70.633C177.969 71.9757 177.633 73.2123 176.962 74.343C176.291 75.4383 175.39 76.3217 174.259 76.993C173.164 77.6643 171.945 78 170.602 78H147.176ZM183.861 78V39.84H219V46.889H190.91V55.369H213.488V62.471H190.91V70.951H219V78H183.861ZM231.7 78C230.358 78 229.121 77.6643 227.99 76.993C226.895 76.3217 226.012 75.4383 225.34 74.343C224.669 73.2123 224.333 71.9757 224.333 70.633V47.207C224.333 45.8643 224.669 44.6453 225.34 43.55C226.012 42.4193 226.895 41.5183 227.99 40.847C229.121 40.1757 230.358 39.84 231.7 39.84H255.073C256.416 39.84 257.653 40.1757 258.783 40.847C259.914 41.5183 260.815 42.4193 261.486 43.55C262.158 44.6453 262.493 45.8643 262.493 47.207V50.175H255.444V47.525C255.444 47.3483 255.374 47.207 255.232 47.101C255.091 46.9597 254.932 46.889 254.755 46.889H231.965C231.789 46.889 231.63 46.9597 231.488 47.101C231.382 47.207 231.329 47.3483 231.329 47.525V70.315C231.329 70.4917 231.382 70.6507 231.488 70.792C231.63 70.898 231.789 70.951 231.965 70.951H254.755C254.932 70.951 255.091 70.898 255.232 70.792C255.374 70.6507 255.444 70.4917 255.444 70.315V63.425H246.805V56.376H262.493V70.633C262.493 71.9757 262.158 73.2123 261.486 74.343C260.815 75.4383 259.914 76.3217 258.783 76.993C257.653 77.6643 256.416 78 255.073 78H231.7ZM298.749 78L287.248 64.273H296.417L306.381 76.039V78H298.749ZM268.327 78V39.893H299.067C300.41 39.893 301.647 40.2287 302.777 40.9C303.908 41.5713 304.809 42.4723 305.48 43.603C306.152 44.6983 306.487 45.9173 306.487 47.26V57.542C306.487 58.8847 306.152 60.1213 305.48 61.252C304.809 62.3827 303.908 63.2837 302.777 63.955C301.647 64.591 300.41 64.909 299.067 64.909L275.323 64.962V78H268.327ZM275.959 57.86H298.749C298.926 57.86 299.085 57.807 299.226 57.701C299.368 57.595 299.438 57.4537 299.438 57.277V47.525C299.438 47.3483 299.368 47.207 299.226 47.101C299.085 46.9597 298.926 46.889 298.749 46.889H275.959C275.783 46.889 275.624 46.9597 275.482 47.101C275.376 47.207 275.323 47.3483 275.323 47.525V57.277C275.323 57.4537 275.376 57.595 275.482 57.701C275.624 57.807 275.783 57.86 275.959 57.86ZM319.324 78C317.981 78 316.744 77.6643 315.614 76.993C314.518 76.3217 313.635 75.4383 312.964 74.343C312.292 73.2123 311.957 71.9757 311.957 70.633V47.207C311.957 45.8643 312.292 44.6453 312.964 43.55C313.635 42.4193 314.518 41.5183 315.614 40.847C316.744 40.1757 317.981 39.84 319.324 39.84H342.75C344.092 39.84 345.311 40.1757 346.407 40.847C347.537 41.5183 348.438 42.4193 349.11 43.55C349.781 44.6453 350.117 45.8643 350.117 47.207V70.633C350.117 71.9757 349.781 73.2123 349.11 74.343C348.438 75.4383 347.537 76.3217 346.407 76.993C345.311 77.6643 344.092 78 342.75 78H319.324ZM319.589 70.951H342.379C342.555 70.951 342.714 70.898 342.856 70.792C342.997 70.6507 343.068 70.4917 343.068 70.315V47.525C343.068 47.3483 342.997 47.207 342.856 47.101C342.714 46.9597 342.555 46.889 342.379 46.889H319.589C319.412 46.889 319.253 46.9597 319.112 47.101C319.006 47.207 318.953 47.3483 318.953 47.525V70.315C318.953 70.4917 319.006 70.6507 319.112 70.792C319.253 70.898 319.412 70.951 319.589 70.951ZM375.182 78L353.081 39.84H361.243L378.309 69.52L395.428 39.84H403.537L381.436 78H375.182ZM407.455 78V39.84H442.594V46.889H414.504V55.369H437.082V62.471H414.504V70.951H442.594V78H407.455Z" fill="black"/>
<defs>
<linearGradient id="paint0_linear_15_12" x1="25.3269" y1="90.588" x2="8.16722" y2="114.921" gradientUnits="userSpaceOnUse">
<stop stop-color="#5DF7FF"/>
<stop offset="1" stop-color="#1261FF"/>
</linearGradient>
<linearGradient id="paint1_linear_15_12" x1="135.99" y1="-27.48" x2="-25.37" y2="111.28" gradientUnits="userSpaceOnUse">
<stop stop-color="#5DF7FF"/>
<stop offset="1" stop-color="#1261FF"/>
</linearGradient>
<linearGradient id="paint2_linear_15_12" x1="181.547" y1="-14.7601" x2="39.4739" y2="117.012" gradientUnits="userSpaceOnUse">
<stop stop-color="#5DF7FF"/>
<stop offset="1" stop-color="#1261FF"/>
</linearGradient>
<linearGradient id="paint3_linear_15_12" x1="63.3369" y1="108.928" x2="46.1772" y2="133.261" gradientUnits="userSpaceOnUse">
<stop stop-color="#5DF7FF"/>
<stop offset="1" stop-color="#1261FF"/>
</linearGradient>
<clipPath id="clip0_15_12">
<rect width="121.89" height="125.37" fill="white"/>
</clipPath>
</defs>
</svg>
